<mxfile host="www.draw.io" modified="2020-02-02T19:01:53.617Z" agent="Mozilla/5.0 (Windows NT 10.0; Win64; x64) AppleWebKit/537.36 (KHTML, like Gecko) Chrome/79.0.3945.130 Safari/537.36" etag="a7LHKf7SHweHzorOaJmU" version="12.6.4" type="github">
  <diagram id="iU_ykfHXRe4bBs_8eY2F" name="Page-1">
    <mxGraphModel dx="1635" dy="902" grid="1" gridSize="10" guides="1" tooltips="1" connect="1" arrows="1" fold="1" page="1" pageScale="1" pageWidth="850" pageHeight="1100" math="0" shadow="0">
      <root>
        <mxCell id="0"/>
        <mxCell id="1" parent="0"/>
        <mxCell id="3x1E996eOy0y6XOTDane-5" value="" style="rounded=0;whiteSpace=wrap;html=1;strokeWidth=2;shadow=0;fillColor=#F5F5F5;strokeColor=#6c8ebf;" parent="1" vertex="1">
          <mxGeometry x="80" y="15" width="720" height="610" as="geometry"/>
        </mxCell>
        <mxCell id="3x1E996eOy0y6XOTDane-19" value="" style="rounded=0;whiteSpace=wrap;html=1;strokeWidth=1;strokeColor=#B3B3B3;glass=0;shadow=1;" parent="1" vertex="1">
          <mxGeometry x="225" y="180" width="430" height="260" as="geometry"/>
        </mxCell>
        <mxCell id="3x1E996eOy0y6XOTDane-1" value="&lt;h1&gt;&lt;font style=&quot;font-size: 40px&quot; face=&quot;Tahoma&quot;&gt;MeTube&lt;/font&gt;&lt;/h1&gt;" style="text;html=1;strokeColor=none;fillColor=none;align=center;verticalAlign=middle;whiteSpace=wrap;rounded=0;" parent="1" vertex="1">
          <mxGeometry x="230" y="70" width="420" height="40" as="geometry"/>
        </mxCell>
        <mxCell id="3x1E996eOy0y6XOTDane-31" value="" style="group" parent="1" vertex="1" connectable="0">
          <mxGeometry x="515" y="370" width="90" height="40" as="geometry"/>
        </mxCell>
        <mxCell id="3x1E996eOy0y6XOTDane-28" value="" style="rounded=1;whiteSpace=wrap;html=1;strokeColor=#BDBDBD;strokeWidth=1;fillColor=#3D44FF;" parent="3x1E996eOy0y6XOTDane-31" vertex="1">
          <mxGeometry width="90" height="40" as="geometry"/>
        </mxCell>
        <mxCell id="3x1E996eOy0y6XOTDane-27" value="&lt;font style=&quot;font-size: 14px&quot; color=&quot;#ffffff&quot;&gt;Log In&lt;/font&gt;" style="text;html=1;strokeColor=none;fillColor=none;align=center;verticalAlign=middle;whiteSpace=wrap;rounded=0;" parent="3x1E996eOy0y6XOTDane-31" vertex="1">
          <mxGeometry x="15" y="10" width="60" height="20" as="geometry"/>
        </mxCell>
        <mxCell id="3x1E996eOy0y6XOTDane-32" value="" style="group" parent="1" vertex="1" connectable="0">
          <mxGeometry x="275" y="210" width="330" height="60" as="geometry"/>
        </mxCell>
        <mxCell id="3x1E996eOy0y6XOTDane-11" value="&lt;font style=&quot;font-size: 17px&quot;&gt;Username&lt;/font&gt;" style="text;html=1;strokeColor=none;fillColor=none;align=center;verticalAlign=middle;whiteSpace=wrap;rounded=0;" parent="3x1E996eOy0y6XOTDane-32" vertex="1">
          <mxGeometry width="90" height="25.71428571428571" as="geometry"/>
        </mxCell>
        <mxCell id="3x1E996eOy0y6XOTDane-12" value="" style="rounded=0;whiteSpace=wrap;html=1;strokeWidth=1;fillColor=#f5f5f5;strokeColor=#BDBDBD;fontColor=#333333;" parent="3x1E996eOy0y6XOTDane-32" vertex="1">
          <mxGeometry y="25.71428571428571" width="330" height="34.285714285714285" as="geometry"/>
        </mxCell>
        <mxCell id="3x1E996eOy0y6XOTDane-33" value="" style="group;strokeColor=none;" parent="1" vertex="1" connectable="0">
          <mxGeometry x="275" y="290" width="335" height="60" as="geometry"/>
        </mxCell>
        <mxCell id="3x1E996eOy0y6XOTDane-24" value="&lt;font style=&quot;font-size: 17px&quot;&gt;Password&lt;/font&gt;" style="text;html=1;strokeColor=none;fillColor=none;align=center;verticalAlign=middle;whiteSpace=wrap;rounded=0;" parent="3x1E996eOy0y6XOTDane-33" vertex="1">
          <mxGeometry width="90" height="25.71428571428571" as="geometry"/>
        </mxCell>
        <mxCell id="3x1E996eOy0y6XOTDane-25" value="" style="rounded=0;whiteSpace=wrap;html=1;strokeWidth=1;fillColor=#F5F5F5;strokeColor=#BDBDBD;fontColor=#333333;" parent="3x1E996eOy0y6XOTDane-33" vertex="1">
          <mxGeometry y="25.71428571428571" width="335" height="34.285714285714285" as="geometry"/>
        </mxCell>
        <mxCell id="3x1E996eOy0y6XOTDane-34" value="" style="whiteSpace=wrap;html=1;aspect=fixed;rounded=0;shadow=0;glass=0;strokeColor=#BDBDBD;strokeWidth=1;fillColor=#F5F5F5;" parent="1" vertex="1">
          <mxGeometry x="280" y="380" width="20" height="20" as="geometry"/>
        </mxCell>
        <mxCell id="3x1E996eOy0y6XOTDane-36" value="&lt;font style=&quot;font-size: 16px&quot;&gt;Remember Me&lt;/font&gt;" style="text;html=1;strokeColor=none;fillColor=none;align=center;verticalAlign=middle;whiteSpace=wrap;rounded=0;shadow=0;glass=0;" parent="1" vertex="1">
          <mxGeometry x="300" y="382.5" width="120" height="15" as="geometry"/>
        </mxCell>
        <mxCell id="3x1E996eOy0y6XOTDane-37" value="" style="rounded=1;whiteSpace=wrap;html=1;shadow=1;glass=0;strokeColor=#BDBDBD;strokeWidth=1;fillColor=#FFFFFF;" parent="1" vertex="1">
          <mxGeometry x="382.5" y="450" width="120" height="60" as="geometry"/>
        </mxCell>
        <mxCell id="3x1E996eOy0y6XOTDane-41" value="&lt;font style=&quot;font-size: 18px&quot;&gt;Sign Up&lt;/font&gt;" style="text;html=1;strokeColor=none;fillColor=none;align=center;verticalAlign=middle;whiteSpace=wrap;rounded=0;shadow=1;glass=0;" parent="1" vertex="1">
          <mxGeometry x="379" y="470" width="127" height="20" as="geometry"/>
        </mxCell>
      </root>
    </mxGraphModel>
  </diagram>
</mxfile>
